<svg xmlns="http://www.w3.org/2000/svg" width="196" height="56" viewBox="0 0 196 56"><g fill="none" fill-rule="evenodd"><path d="M0 0h42v35a21 21 0 0 1-42 0V0Z" fill="#000"></path><path d="m27.03 37.36-.8.3V25.74h2.56V40h-2.55L15.48 28.45l.77-.3V40h-2.53V25.74h2.53z" fill="#FFF" fill-rule="nonzero"></path><g fill="#000" fill-rule="nonzero"><path d="m63.03 37.36-.8.31V25.74h2.56V40h-2.55L51.48 28.45l.77-.3V40h-2.53V25.74h2.53zM80 33.97v-8.23h2.53v8.43c0 .9-.12 1.68-.36 2.36a4.78 4.78 0 0 1-1.04 1.73c-.45.47-.97.86-1.58 1.16-.61.3-1.27.51-2 .65a13.34 13.34 0 0 1-4.63 0 7.53 7.53 0 0 1-2.02-.65 4.87 4.87 0 0 1-2.6-2.88 7.06 7.06 0 0 1-.36-2.37v-8.43h2.53v8.23c0 1.12.22 1.96.64 2.54.43.58 1 .98 1.72 1.2a8.6 8.6 0 0 0 2.44.31c.88 0 1.67-.1 2.39-.32.7-.21 1.28-.6 1.7-1.19.43-.58.64-1.42.64-2.54ZM95.83 38.68h-1.16l7.63-12.94h2.53V40h-2.53V29.35l.57.18L96.65 40h-2.78l-6.22-10.45.57-.16V40h-2.53V25.74h2.53zM110.51 33.95v3.87h10.12V40h-12.65V25.74h12.63v2.18h-10.1v3.94h8.27v2.09h-8.27Zm2.53-10.01 2.77-3.5h3.3l-3.71 3.5h-2.36ZM123.4 40V25.74h8.53c1.07 0 2 .15 2.77.46.78.3 1.38.76 1.8 1.38.43.62.64 1.42.64 2.39a3.9 3.9 0 0 1-.33 1.68c-.22.46-.52.84-.92 1.13-.4.3-.85.52-1.37.67-.53.16-1.09.26-1.69.3l-.22-.15c.94.03 1.73.12 2.36.27.63.16 1.1.44 1.43.85.32.41.48 1.02.48 1.83V40h-2.55v-3.32c0-.56-.1-1-.29-1.3-.19-.3-.53-.52-1.01-.65a8.64 8.64 0 0 0-2.05-.19h-5.06V40h-2.53Zm2.52-7.52h6.01c.88 0 1.55-.22 2-.65.46-.44.68-1.01.68-1.73 0-.69-.22-1.22-.68-1.58-.45-.37-1.12-.55-2-.55h-6v4.5ZM140.37 25.74h2.55V40h-2.55zM153 39.05h2.5v5.35H153v-5.35Zm1.24 1.21c-1.69 0-3.16-.3-4.41-.9a6.76 6.76 0 0 1-2.9-2.55 7.32 7.32 0 0 1-1.03-3.94c0-1.52.34-2.84 1.02-3.95a6.67 6.67 0 0 1 2.9-2.55c1.26-.6 2.73-.89 4.42-.89 1.71 0 3.2.3 4.43.9a6.76 6.76 0 0 1 3.93 6.5c0 1.52-.35 2.83-1.04 3.93a6.86 6.86 0 0 1-2.89 2.55c-1.24.6-2.72.9-4.43.9Zm0-2.24c1.11 0 2.1-.19 2.96-.56a4.48 4.48 0 0 0 2.02-1.7c.5-.77.74-1.73.74-2.89 0-1.14-.25-2.1-.74-2.86a4.54 4.54 0 0 0-2.02-1.71 7.22 7.22 0 0 0-2.96-.58c-1.1 0-2.09.2-2.96.58a4.6 4.6 0 0 0-2.06 1.71c-.5.76-.75 1.72-.75 2.86 0 1.16.25 2.12.75 2.88.5.77 1.19 1.34 2.06 1.7.87.38 1.86.57 2.96.57ZM177.24 33.97v-8.23h2.53v8.43c0 .9-.12 1.68-.36 2.36a4.78 4.78 0 0 1-1.04 1.73c-.45.47-.97.86-1.58 1.16-.61.3-1.27.51-2 .65a13.34 13.34 0 0 1-4.63 0 7.53 7.53 0 0 1-2.02-.65 4.87 4.87 0 0 1-2.6-2.88 7.06 7.06 0 0 1-.36-2.37v-8.43h2.53v8.23c0 1.12.22 1.96.64 2.54.43.58 1 .98 1.72 1.2a8.6 8.6 0 0 0 2.44.31c.88 0 1.67-.1 2.39-.32.7-.21 1.28-.6 1.7-1.19.43-.58.64-1.42.64-2.54ZM185.46 33.95v3.87h10.12V40h-12.65V25.74h12.63v2.18h-10.1v3.94h8.27v2.1z"></path></g></g></svg>